<svg xmlns="http://www.w3.org/2000/svg" height="64" viewBox="0 0 64 64" width="64"><g id="icons"><circle cx="29" cy="49" fill="#ffffff" r="1"/><circle cx="33" cy="51" fill="#ffffff" r="1"/><g fill="none" stroke="#ffffff" stroke-linecap="round" stroke-linejoin="round" stroke-width="2"><path d="m26.8781 43.75837a19.9685 19.9685 0 0 1 -5.07135-13.3007v-29.45767" fill="#ffffff"/><path d="m1.794 5h19.827" fill="#ffffff"/><path d="m7.5 59 6.457-.043 8.595 3.906 7.948-3.863h28.518" fill="#ffffff"/><path d="m8 44h4l6 4h4l4-4h3l9 6 18.24633 5.44716a3.857 3.857 0 0 1 -1.10333 7.55284h-48.08825v-13.19254a49.30654 49.30654 0 0 0 -.2283-8.661l-5.82645-40.14646" fill="#ffffff"/></g><g><g fill="none" stroke="#ffffff" stroke-linecap="round" stroke-linejoin="round" stroke-width="2"><path d="m22.01491 27.75209a21.00347 21.00347 0 1 1 28.15925 25.81762" fill="#ffffff"/><path d="m42.002 25.414 8.184 5.718-3.227 9.862-10.026-.038-3.164-9.84z" fill="#ffffff"/><path d="m48.074 14.331v2.049l-6.078 2.342-6.115-2.33v-2.047" fill="#ffffff"/><path d="m25.023 22.22 1.949.633.348 6.505-4.106 5.095-.972-.366" fill="#ffffff"/><path d="m47.484 52.09 3.541-5.467 6.317-1.709 1.203 1.655" fill="#ffffff"/><path d="m62.701 33.817-1.949.633-4.106-5.058.327-6.535 1.946-.633" fill="#ffffff"/></g><circle cx="42" cy="22.031" fill="#ffffff" r="1"/><circle cx="30.673" cy="30.294" fill="#ffffff" r="1"/><circle cx="34.901" cy="43.91" fill="#ffffff" r="1"/><circle cx="48.867" cy="43.91" fill="#ffffff" r="1"/><circle cx="53.289" cy="30.255" fill="#ffffff" r="1"/></g></g></svg>