<svg xmlns="http://www.w3.org/2000/svg" height="512" viewBox="0 0 512 512" width="512"><g id="OUTLINE"><path d="m464 240h-29.328a152.019 152.019 0 0 0 5.328-40c0-83.81348-68.187-152-152-152s-152 68.18652-152 152a152.019 152.019 0 0 0 5.328 40h-61.328v-224h-64v480h64v-112h38.55859l16-80h18.61982l30.92218 193.26367 15.79882-2.52734-7.47778-46.73633h43.71277l3.891 48.6377 15.94922-1.2754-3.78901-47.3623h43.81439v48h16v-48h43.81445l-3.78906 47.3623 15.94922 1.2754 3.89099-48.6377h43.71277l-7.47778 46.73633 15.79882 2.52734 30.92212-193.26367h9.17847a32 32 0 0 0 0-64zm-400 240h-32v-448h32zm360-280c0 2.26953-.06226 4.53174-.17273 6.78687a173.9084 173.9084 0 0 1 -88.43933-42.86087l54.21863-54.21851a135.44 135.44 0 0 1 34.39343 90.29251zm-124.686 0 24.74488-24.74487a189.97688 189.97688 0 0 0 98.05151 47.46411 134.915 134.915 0 0 1 -4.08695 17.28076h-78.70944zm17.372 40h-49.91549q-1.734-1.99731-3.51221-3.94434l24.7417-24.74166zm-28.686-176a135.43953 135.43953 0 0 1 90.2926 34.39355l-54.2186 54.21851a173.90181 173.90181 0 0 1 -42.86132-88.44238q3.37332-.16668 6.78732-.16968zm-22.71655 1.90771a189.97138 189.97138 0 0 0 47.46142 98.03345l-24.74487 24.74484-90.2926-90.29245a135.60622 135.60622 0 0 1 67.57605-32.48584zm-78.89 43.79981 90.29255 90.29248-24.7391 24.73926a187.97093 187.97093 0 0 0 -98.0369-47.46973 135.6088 135.6088 0 0 1 32.48343-67.56201zm-34.22345 83.4956a172.05644 172.05644 0 0 1 88.45292 42.85988l-3.93692 3.937h-78.7095a135.87552 135.87552 0 0 1 -5.9765-40q0-3.41858.17-6.79688zm-46.72859 174.79688h-25.44141v-64h38.24139zm63.94018-64h7.77448a152.15915 152.15915 0 0 0 50.28869 35.37988l2.92963 36.62012h-49.47278zm31.01013 0h24.22266l1.36072 17.00879a136.25623 136.25623 0 0 1 -25.58338-17.00879zm-10.53015 128-6.4-40h48.19275l3.2 40zm106.13843 0h-45.09436l-3.2-40h48.29436zm0-56h-49.5744l-2.44293-30.53711a151.73283 151.73283 0 0 0 44.01733 6.53711q4.0122 0 8-.2124zm0-40.24463c-2.65686.15723-5.32373.24463-8 .24463a135.83344 135.83344 0 0 1 -45.40021-7.82324l-1.93414-24.17676h55.33435zm61.09436 96.24463h-45.09436v-40h48.29443zm4.4801-56h-49.57446v-25.91309a152.3527 152.3527 0 0 0 53.1814-19.17529zm5.21411-65.17725a136.34953 136.34953 0 0 1 -54.78857 23.02588v-29.84863h55.33435zm51.34986 121.17725h-44.9928l3.20007-40h48.19263zm8.96-56h-49.47282l4.53674-56.70947a151.791 151.791 0 0 0 16.68165-15.29053h39.77442zm36.90157-88h-384v-32h384a16 16 0 0 1 0 32z" fill="#c49b36"/><path d="m439.716 116h56.569v16h-56.569z" transform="matrix(.707 -.707 .707 .707 49.382 367.227)" fill="#c49b36"/><path d="m415.716 60h56.569v16h-56.569z" transform="matrix(.707 -.707 .707 .707 81.95 333.857)" fill="#c49b36"/><path d="m369.373 24h45.255v16h-45.255z" transform="matrix(.707 -.707 .707 .707 92.176 286.546)" fill="#c49b36"/><path d="m175.716 28h56.569v16h-56.569z" transform="matrix(.707 -.707 .707 .707 34.289 154.787)" fill="#c49b36"/><path d="m476.686 16h22.627v16h-22.627z" transform="matrix(.707 -.707 .707 .707 125.947 352.082)" fill="#c49b36"/></g></svg>