<svg xmlns="http://www.w3.org/2000/svg" id="outline" height="512" viewBox="0 0 340 340" width="512"><path d="m33.271 323.672a4 4 0 0 0 5.486-1.375l42.588-71.069a4.047 4.047 0 0 0 .36-.779l5.737-17.03c1.569-3.467 7.193-8.9 11.073-12.149 0 0 68.547 1.346 68.735 1.383 5.731 5.9 11.964 14.986 18.555 27.037l-18.968 29.132a11.255 11.255 0 0 0 2.289 14.85l13.7 11.262a11.266 11.266 0 0 0 16.394-2.261l6.664-9.56c6.45 16.03 10.55 28.262 10.6 28.395a4 4 0 1 0 7.587-2.534c-.049-.148-5.047-15.068-12.706-33.621-.008-.019-.021-.035-.029-.055l52.425-75.208a31.526 31.526 0 0 0 5.013-11.758c11.274-1.022 18.865-8.555 20.987-21.023a19.279 19.279 0 0 0 -2.593-13.3 41.257 41.257 0 0 0 -2.421-3.516l4.149-5.541a11.164 11.164 0 0 0 10.963-1.13 21.3 21.3 0 0 0 8.211-11.139 14.148 14.148 0 0 0 -3.391-13.915c-4.309-4.48-12.417-12.513-19.468-17.292-1.75-3.166-7.94-14.141-13.771-21.773a14.572 14.572 0 0 0 -13.79-5.536c-6.364.974-23.43 4.613-23.43 4.613-2.758.755-3.97 4.638-1.869 6.645 5.314 5.517 5.19 20.141 4.57 26.994a312.04 312.04 0 0 0 -28.671 27.952c-3.672 4.132-8.6 10.9-14.656 20.125a4 4 0 1 0 6.687 4.39c5.841-8.9 10.535-15.359 13.95-19.2a308.737 308.737 0 0 1 28.758-27.92l12.741-6.866 7.9 6.893a28.654 28.654 0 0 0 3.316 12.988 10.153 10.153 0 0 0 4.119 4.116l-2.742 3.743a33.794 33.794 0 0 0 -8.394-1.688 14.652 14.652 0 0 0 -9.96 3.012 56.545 56.545 0 0 0 -8.026 7.829 18.526 18.526 0 0 0 -4.373 16.043 31.107 31.107 0 0 0 -4.4 3.933c-15.5 1.947-36.208 4.115-49.34 3.793a6.785 6.785 0 0 1 -6.221-4.418 41.973 41.973 0 0 1 -2.3-9.45c-.115-2.977-1.552-29.127-16.82-38.616a17.75 17.75 0 0 0 -24.6 5.916c-5.463 9.1-5.963 23.381-1.491 42.446.343 2.171 3.891 22.722 17.016 35.608a401.406 401.406 0 0 0 -50.554.087 19.269 19.269 0 0 1 -2.892-4.821 10.328 10.328 0 0 1 2.522-11.227s5.987-5.407 7.669-9.485c3.895-9.439 13.922-33.757 22.615-55.758 6.786-17.172 19.859-22.083 28.053-23.428 8.744 13.741 20.959 15.409 27.244 15.85 5.444.381 10.624-1.414 15.134-3.914-2.413 9.866-8.408 17.39-12.721 21.748a80.875 80.875 0 0 0 -4.6-11.639 4 4 0 0 0 -7.221 3.445c3.118 6.533 4.917 11.963 5.349 16.137.145 1.416 2.123 4.638 6.3 2.849.983-.421 21.276-15.419 21.951-40.084a31.51 31.51 0 0 0 5.11-8.768c3.99-.161 9.339-1.3 12.594-5.768 3.164-4.34 3.9-11.787 3.963-17.23.36-.019.714-.033 1.075-.054a4 4 0 0 0 3.762-3.722 18.1 18.1 0 0 0 -5.988-13.676c.634-5.57 1.186-19.522-6.931-31.156-6.122-8.774-15.742-14.255-28.527-16.281-.661-.116-16.374-2.726-29.483 7.217-8.798 6.666-14.186 17.21-16.038 31.364a24.451 24.451 0 0 0 -10.227 9.141 5.014 5.014 0 0 0 4.285 6.656c-1.151 5.595-1.8 12.272.148 16.839 2.145 5.041 7.042 7.366 10.861 8.434a31.612 31.612 0 0 0 .889 5.058c-9.111 1.916-24.542 8.1-32.421 28.04-8.672 21.947-18.383 46.346-22.566 55.639-1.343 2.983-5.8 6.757-5.8 6.757a18.152 18.152 0 0 0 -4.417 20.008 26.479 26.479 0 0 0 2.993 5.414c-3.667 3.239-9.437 8.842-11.511 13.678-.042.1-.08.2-.114.3l-5.656 16.789-42.364 70.698a4 4 0 0 0 1.371 5.487zm128.401-224.242c2.128.522 4.745 1.082 7.8 1.581-.163 2.534-.359 6.071-.459 9.761a23.444 23.444 0 0 1 -7.341-11.342zm15.27 15.732c.009-4.648.266-9.709.48-13.143 3.206.294 6.7.481 10.437.495-.208 3.6-.445 8.825-.409 13.479a60.258 60.258 0 0 1 -10.508-.831zm18.517-1.906c.052-3.99.261-8.147.43-10.985 3.2-.2 6.522-.534 9.967-1.04a23.534 23.534 0 0 1 -10.397 12.025zm24.039-19.7a6.6 6.6 0 0 1 -4.172 2.223c.276-2.206.525-4.394.729-6.506a4 4 0 1 0 -7.963-.769c-.137 1.417-.3 2.873-.469 4.343a109.021 109.021 0 0 1 -46.96-1.981c-.095-5.5.076-10.981.276-15.157a257.33 257.33 0 0 0 54.541 5.721c2.109 0 4.26-.03 6.436-.082-.116 5.584-1.016 10.294-2.416 12.209zm-66.906-32.165a4 4 0 0 0 2.889-3.45c1.3-13.027 5.717-22.5 13.118-28.146 10.282-7.85 23.222-5.784 23.4-5.753 10.593 1.679 18.414 6.025 23.247 12.918 5.919 8.443 6.095 18.874 5.714 24.14a408.3 408.3 0 0 1 -53.528-6.437 4 4 0 1 0 -1.584 7.842 415.241 415.241 0 0 0 57.188 6.7 10.835 10.835 0 0 1 2.98 4.018c-37.726 1.5-66.538-5.677-78.09-9.166a15.6 15.6 0 0 1 4.666-2.666zm-3.227 22.847c-.878-2.064-.791-6.261.181-11.349q1.619.453 3.478.936c-.188 3.554-.376 8.33-.388 13.381a6.356 6.356 0 0 1 -3.271-2.968zm28.889 138.908c1.061-.1 2.133-.239 3.219-.423a251.487 251.487 0 0 0 25.674-5.811l-16.407 25.2a154.363 154.363 0 0 0 -12.486-18.966zm78.946-17.632-64.538 92.586a3.266 3.266 0 0 1 -4.752.655l-13.7-11.262a3.262 3.262 0 0 1 -.663-4.3l63.092-96.9a23.249 23.249 0 0 1 11.166-9.051l6.056-2.34a26.222 26.222 0 0 0 11.727-8.985l14.277-19.492a2.362 2.362 0 0 1 .322.278l2.656 2.993-14.914 19.904a26.327 26.327 0 0 0 -5.028 12.389l-1.694 13.143a23.459 23.459 0 0 1 -4.007 10.382zm24.676-29.546c-1.383 8.129-5.4 12.856-11.952 14.128l.913-7.081c2-8.282 8.87-15.792 8.87-15.792.212.323 2.621 6.077 2.167 8.745zm17.039-41.658a6.141 6.141 0 0 1 1.506 6.033 13.206 13.206 0 0 1 -5.2 6.955 3.211 3.211 0 0 1 -4.264-.512l-4.793-5.4c-1.97-2.219-6.5-3.626-9.72-3.262a2.4 2.4 0 0 1 -2.451-1.124 20.644 20.644 0 0 1 -2.366-9.03l10.738-8.725c6.047 4.446 12.8 11.168 16.548 15.065zm-40.055-42.239a6.567 6.567 0 0 1 6.222 2.485 184.1 184.1 0 0 1 11.96 18.709l-9.267 7.529-7.5-6.55v-5.414a4 4 0 1 0 -8 0v4.843l-7.063 3.8c.153-6.349-.331-15.4-3.534-22.262 6.089-1.341 12.447-2.411 17.182-3.14zm-4.021 64.234c2.858-2.558 6.9-1.141 8.445-.794 0 0-5.2 9.459-12.311 11.922l-5.751 2.222a10.714 10.714 0 0 1 2.768-6.634 61.984 61.984 0 0 1 6.849-6.716zm-96.307 54.018c-10.972-9.156-16.267-25-17.712-31.51a67.695 67.695 0 0 1 18.347-6.053 4 4 0 1 0 -1.353-7.885 75.6 75.6 0 0 0 -18.679 5.869c-3.5-17.89-1.145-27.043 1.611-31.634a9.75 9.75 0 0 1 13.525-3.239c12.171 7.565 13.044 31.951 13.054 32.291 0 .064.02.124.024.187s0 .125.005.189a49.976 49.976 0 0 0 2.76 11.406 14.75 14.75 0 0 0 13.515 9.613c.946.024 1.928.036 2.941.036 11.44 0 26.945-1.448 40.322-3.006l-13 19.971a253.358 253.358 0 0 1 -33.751 8.277c-3.373.571-15.566.529-21.609-4.512z" fill="#ffffff"/><path d="m75.316 134.713a22.109 22.109 0 1 0 -22.109-22.108 22.134 22.134 0 0 0 22.109 22.108zm0-36.217a14.109 14.109 0 1 1 -14.109 14.109 14.125 14.125 0 0 1 14.109-14.105z" fill="#ffffff"/><path d="m177.31 82.055-2.921-.8a4 4 0 0 0 -2.112 7.716l2.921.8a4 4 0 0 0 2.112-7.716z" fill="#ffffff"/><path d="m195.287 82.928-3 .392a4 4 0 1 0 1.035 7.932l3-.391a4 4 0 1 0 -1.035-7.933z" fill="#ffffff"/><path d="m149.906 272.876 3.292-.713a4 4 0 1 0 -1.693-7.818l-3.293.713c-6.758 1.838-15.729 10.575-15.729 10.575l-.006.006-.008.006-45.523 41.645a4 4 0 1 0 5.4 5.9l42.631-39c5.7 6.149 19.237 21.677 26.454 37.692a4 4 0 1 0 7.293-3.288c-7.749-17.194-21.757-33.277-27.824-39.8 0 .006 4.386-4.84 9.006-5.918z" fill="#ffffff"/></svg>