<svg xmlns="http://www.w3.org/2000/svg" id="Capa_1" enable-background="new 0 0 512 512" height="512" viewBox="0 0 512 512" width="512"><g><path d="m499.291 79.161h-25.607c-7.008 0-12.709 5.702-12.709 12.71v38.562h-16.201c-.878-15.91-14.095-28.584-30.22-28.584h-13.164c-16.125 0-29.343 12.675-30.221 28.584-6.14 0-76.721 0-86.838 0-.038 0-.08-.042-.08-.08v-16.886l7.603-6.656c10.138-8.876 15.952-21.694 15.952-35.169v-21.995c0-26.511-21.568-48.079-48.079-48.079h-7.451c-26.511 0-48.079 21.568-48.079 48.079v21.995c0 13.475 5.814 26.293 15.952 35.169l7.603 6.656v16.886c0 .038-.042.08-.08.08-4.255 0-75.281 0-86.838 0-.878-15.91-14.095-28.584-30.221-28.584h-13.166c-16.125 0-29.343 12.675-30.22 28.584h-16.201v-38.562c0-7.008-5.702-12.71-12.709-12.71h-25.608c-7.007 0-12.709 5.702-12.709 12.71v403.239c0 4.142 3.358 7.5 7.5 7.5s7.5-3.358 7.5-7.5v-400.949h21.026v400.949c0 4.142 3.358 7.5 7.5 7.5s7.5-3.358 7.5-7.5v-349.676h16.938c1.712 5.674 6.097 10.188 11.685 12.096.594 6.449 1.355 12.696 2.281 18.63.578 3.701 3.769 6.345 7.401 6.345 4.63 0 8.126-4.126 7.42-8.657-.763-4.893-1.401-10.032-1.929-15.322h17.397c1.812 14.797 4.722 28.225 8.032 36.803 1.583 4.11 5.455 6.788 9.864 6.821h.085c4.401 0 8.299-2.628 9.951-6.726 9.72-24.235 27.634-49.992 41.689-49.992h.611c-.976 2.565-1.516 5.343-1.516 8.246v20.393c0 8.631 1.598 17.093 4.667 25.021-19.871 22.583-35.533 28.053-63.664 31.909-2.486.338-4.925-.659-6.368-2.601-4.202-5.656-7.923-13.072-11.061-22.043-1.368-3.91-5.645-5.973-9.555-4.604-3.91 1.367-5.971 5.646-4.604 9.555 3.638 10.403 8.072 19.164 13.179 26.037 4.108 5.531 10.603 8.721 17.452 8.721.99 0 1.989-.067 2.987-.203 29.066-3.984 47.871-10.235 69.03-32.624 4.377 7.242 6.683 15.309 6.683 23.433v52.956l-26.514 146.882c-2.322 12.865 3.672 25.74 14.318 32.235-.156 3.819-.72 17.908-.72 17.908-.354 9.433 5.247 18.258 13.942 21.963 2.889 1.228 5.917 1.815 8.914 1.815 7.417 0 14.631-3.604 19.002-10.034l12.39-18.241c10.803-15.906 10.966-36.562.411-52.626l-1.582-2.405 16.158-53.009 16.157 53.01-1.585 2.409c-10.552 16.061-10.389 36.716.414 52.623l12.392 18.243c4.37 6.428 11.582 10.03 19 10.03 2.999 0 6.031-.588 8.923-1.817 8.688-3.702 14.289-12.527 13.934-21.983 0 0-.563-14.066-.719-17.885 10.646-6.495 16.641-19.37 14.318-32.235l-12.989-71.956c-.736-4.076-4.63-6.781-8.713-6.048-4.076.736-6.784 4.637-6.048 8.713l2.858 15.831-35.986 11.647-9.885-32.433c-1.629-5.346-6.479-8.938-12.069-8.938s-10.439 3.592-12.069 8.938l-9.885 32.433-35.985-11.646c17.517-97.273 16.622-91.477 16.622-92.75v-4.606h82.635v4.606c0 1.233-.269-.926 7.569 42.597.734 4.077 4.638 6.785 8.713 6.048 4.076-.736 6.784-4.637 6.048-8.713l-7.33-40.604v-52.956c0-8.124 2.307-16.191 6.683-23.433 21.159 22.388 39.964 28.639 69.037 32.625.998.136 1.994.202 2.983.202 6.845 0 13.341-3.19 17.45-8.722 15.37-20.696 21.495-53.733 23.876-79.814 5.59-1.907 9.977-6.422 11.689-12.097h16.938v349.677c0 4.142 3.358 7.5 7.5 7.5s7.5-3.358 7.5-7.5v-400.951h21.024v400.949c0 4.142 3.358 7.5 7.5 7.5s7.5-3.358 7.5-7.5v-403.239c0-7.008-5.702-12.71-12.709-12.71zm-193.864 415.65c-3.467 1.472-7.523.277-9.643-2.841l-12.39-18.24c-5.172-7.615-6.762-16.82-4.781-25.422 0 0 1.541 5.033 1.605 5.201 4.692 12.184 16.161 19.649 28.474 19.648.329 0 .659-.01.989-.021.102 2.536.565 14.079.565 14.079.124 3.314-1.77 6.297-4.819 7.596zm11.202-96.865 7.443 41.229c1.408 7.798-2.942 15.569-10.118 18.076-7.939 2.771-16.521-1.135-19.648-8.906l-11.977-39.297zm-88.023 75.783-12.389 18.238c-2.122 3.121-6.178 4.318-9.637 2.847-3.056-1.302-4.95-4.285-4.827-7.577 0 0 .463-11.566.566-14.102 12.684.412 24.646-7.118 29.463-19.627.064-.167.123-.337.175-.509l1.43-4.691c1.98 8.604.39 17.807-4.781 25.421zm1.066-64.681-11.977 39.297c-3.127 7.772-11.707 11.681-19.648 8.906-7.175-2.506-11.525-10.277-10.117-18.075l7.443-41.229zm171.717-292.199h13.164c8.419 0 15.27 6.85 15.27 15.27 0 14.738-.005 3.743 0 8.015.002 1.871-1.522 3.393-3.393 3.393h-36.917c-1.871 0-3.393-1.522-3.393-3.393 0-.197 0-8.177 0-8.015-.001-8.42 6.849-15.27 15.269-15.27zm-16.645 41.028c-.988 7.751-2.295 15.09-3.776 21.274-4.663-9.528-12.378-23.257-22.3-33.717h13.237c1.828 6.059 6.705 10.793 12.839 12.443zm-102.002-12.443c-4.504 9.559-13.112 17.62-26.742 17.62s-22.238-8.061-26.742-17.62zm-63.547-73.792v-21.995c0-18.24 14.839-33.079 33.079-33.079h7.451c18.24 0 33.079 14.839 33.079 33.079v21.995c0 9.15-3.948 17.855-10.833 23.883l-8.595 7.525c-3.163 2.77-7.22 4.294-11.423 4.294h-11.907c-4.204 0-8.26-1.525-11.423-4.294l-8.595-7.525c-6.884-6.027-10.833-14.732-10.833-23.883zm23.555 58.712v-8.844c2.376.55 4.822.835 7.296.835h11.907c2.474 0 4.921-.285 7.296-.835v8.844c0 .027.004.053.004.08h-26.508c.001-.027.005-.053.005-.08zm-145.303-13.505h13.164c8.42 0 15.27 6.85 15.27 15.27 0 1.831 0 8.194 0 8.015 0 1.871-1.522 3.393-3.393 3.393h-36.917c-1.871 0-3.393-1.522-3.393-3.393 0-.178 0-8.27 0-8.015 0-8.42 6.85-15.27 15.269-15.27zm33.584 62.302c-1.481-6.183-2.787-13.522-3.776-21.273 6.134-1.65 11.011-6.384 12.839-12.443h13.237c-9.923 10.46-17.638 24.19-22.3 33.716zm83.65 91.543v-34.021c0-11.56-3.452-22.973-9.982-33.005-5.733-8.808-8.764-19.042-8.764-29.596v-20.392c0-4.517 3.649-8.194 8.155-8.246h9.052c6.435 20.01 22.715 32.62 42.859 32.62s36.424-12.611 42.859-32.62h9.052c4.505.052 8.155 3.729 8.155 8.246v20.393c0 10.554-3.03 20.788-8.764 29.596-6.531 10.032-9.982 21.445-9.982 33.005v34.021h-82.64zm181.749-42.292c-1.444 1.942-3.883 2.939-6.361 2.602-28.137-3.857-43.8-9.328-63.67-31.91 3.069-7.928 4.667-16.39 4.667-25.021v-20.393c0-2.903-.539-5.681-1.516-8.246h.611c14.055 0 31.969 25.757 41.693 50.003 1.647 4.086 5.545 6.714 9.946 6.714h.085c4.409-.034 8.28-2.711 9.862-6.817 3.312-8.582 6.222-22.011 8.034-36.808h17.399c-2.103 21.019-7.406 51.907-20.75 69.876z" fill="#ffffff"/></g></svg>