<svg xmlns="http://www.w3.org/2000/svg" id="Capa_1" enable-background="new 0 0 512 512" height="512" viewBox="0 0 512 512" width="512"><g><path d="m485.329 449.67c2.848-5.393 4.417-11.453 4.417-17.666 0-3.838-.579-7.543-1.646-11.037 1.637-1.171 3.154-2.446 4.532-3.824 9.133-9.134 11.878-22.026 12.571-31.233.347-4.604-1.326-9.117-4.591-12.381-2.32-2.32-5.276-3.817-8.441-4.375-.58-2.406-1.361-4.73-2.332-6.95 6.862-6.582 10.85-15.734 10.85-25.375 0-12.741-6.814-23.919-16.989-30.085.015-.194.03-.389.03-.587v-75.546h.166c6.424 0 12.051-3.88 14.334-9.884 2.284-6.005.658-12.644-4.143-16.913l-162.743-144.731c-1.648-32.24-28.397-57.964-61.04-57.964h-28.606c-32.645 0-59.393 25.724-61.041 57.965l-162.745 144.73c-4.8 4.27-6.427 10.908-4.143 16.912 2.284 6.005 7.91 9.885 14.335 9.885h.165v75.546c0 .198.015.393.03.587-10.174 6.166-16.988 17.344-16.988 30.084 0 9.642 3.988 18.793 10.85 25.375-.971 2.219-1.751 4.542-2.331 6.948-3.167.558-6.122 2.057-8.442 4.377-3.265 3.264-4.938 7.776-4.591 12.381.693 9.207 3.438 22.1 12.571 31.234 1.377 1.377 2.895 2.652 4.532 3.823-1.067 3.494-1.646 7.199-1.646 11.037 0 6.213 1.569 12.273 4.417 17.666-14.868.969-26.671 13.366-26.671 28.476v25.236c0 4.143 3.357 7.5 7.5 7.5h329.411c4.143 0 7.5-3.357 7.5-7.5s-3.357-7.5-7.5-7.5h-321.911v-17.736c0-7.467 6.075-13.542 13.542-13.542h454.916c7.467 0 13.542 6.075 13.542 13.542v17.736h-124.089c-4.143 0-7.5 3.357-7.5 7.5s3.357 7.5 7.5 7.5h131.589c4.143 0 7.5-3.357 7.5-7.5v-25.236c0-15.11-11.802-27.507-26.671-28.475zm-48.004-.067c-5.264-4.363-8.282-10.761-8.282-17.598 0-12.601 10.251-22.852 22.852-22.852s22.852 10.251 22.852 22.852c0 6.889-3.006 13.237-8.28 17.598zm-26.584-33.255c-5.883-5.883-7.718-15.077-8.222-21.754-.019-.252.062-.47.24-.647.179-.179.396-.261.647-.24 6.677.504 15.87 2.339 21.754 8.223.557.557 1.082 1.173 1.589 1.816-4.921 4.384-8.69 10.029-10.801 16.424-2.006-1.096-3.753-2.369-5.207-3.822zm24.155-79.358c.686.686 1.323 1.454 1.919 2.286-5.464 1.964-10.406 5.024-14.569 8.912-4.587-5.156-6.075-12.773-6.491-18.395 5.894.445 14 2.055 19.141 7.197zm-11.098 42.082c0-15.04 12.236-27.276 27.276-27.276 11.976 0 22.416 7.87 25.973 18.936-6.928 1.758-14.247 4.976-20.051 10.778-3.475 3.475-6.282 7.773-8.378 12.794-3.063.264-6.021.895-8.833 1.847-1.226-1.748-2.56-3.372-4.017-4.83-3.465-3.464-7.47-6.006-11.61-7.869-.231-1.441-.36-2.906-.36-4.38zm58.226 27.465c-.378.378-.78.744-1.198 1.099-4.328-5.13-9.99-9.094-16.449-11.358.955-1.573 2.031-2.966 3.225-4.161 5.884-5.883 15.078-7.718 21.755-8.222.24-.017.469.062.647.24s.259.396.24.647c-.502 6.678-2.337 15.872-8.22 21.755zm-.816-57.056c-7.385-7.501-17.508-12.24-28.574-12.649-1.46-3.189-3.255-6.034-5.363-8.513 3.266-7.058 10.293-11.642 18.266-11.642 11.112 0 20.152 9.04 20.152 20.152 0 4.652-1.622 9.106-4.481 12.652zm-12.478-47.652c-1.053-.095-2.116-.152-3.193-.152-12.848 0-24.303 6.824-30.464 17.577-.755-.346-1.515-.663-2.278-.96v-87.682h35.936v71.217zm-227.033-285.71h28.606c22.878 0 41.919 16.744 45.512 38.621h-119.63c3.592-21.877 22.634-38.621 45.512-38.621zm-213.907 199.276c-.083-.217-.043-.253.091-.371l163.365-145.284h129.509l163.364 145.283c.13.115.174.154.092.371-.083.217-.137.217-.314.217h-297.733c-4.143 0-7.5 3.357-7.5 7.5s3.357 7.5 7.5 7.5h231.631v84.306c-.305-.027-.615-.058-.911-.08-4.361-.343-8.644 1.257-11.739 4.351-3.096 3.096-4.683 7.374-4.354 11.74.635 8.425 3.154 20.229 11.545 28.619.274.274.56.54.846.805-2.801 5.647-4.384 12.001-4.384 18.72 0 .045.004.09.004.135-1.484-.204-2.919-.356-4.268-.458-4.604-.347-9.117 1.326-12.381 4.591-3.265 3.264-4.938 7.776-4.591 12.381.693 9.208 3.438 22.101 12.571 31.234 3.779 3.778 8.521 6.763 14.112 8.905.491 4.852 1.905 9.503 4.133 13.743h-57.985v-25.651c0-9.207-7.491-16.698-16.698-16.698h-23.953c-9.207 0-16.698 7.491-16.698 16.698v25.651h-22.146v-69.7h81.261c9.407 0 17.061-7.653 17.061-17.061v-12.724c0-9.407-7.653-17.061-17.061-17.061h-212.317c-9.407 0-17.061 7.653-17.061 17.061v12.724c0 9.407 7.653 17.061 17.061 17.061h81.261v69.7h-25.405v-25.651c0-9.207-7.491-16.698-16.698-16.698h-23.953c-9.208 0-16.699 7.491-16.699 16.698v25.651h-54.727c2.228-4.24 3.642-8.891 4.133-13.742 5.592-2.142 10.332-5.126 14.111-8.905 9.136-9.135 11.88-22.027 12.572-31.233.348-4.604-1.325-9.116-4.589-12.381s-7.782-4.945-12.382-4.592c-1.349.102-2.784.254-4.268.458 0-.044.004-.089.004-.134 0-6.719-1.583-13.073-4.384-18.72.285-.265.571-.53.844-.803 8.392-8.393 10.911-20.197 11.546-28.621.33-4.365-1.257-8.645-4.352-11.74-3.096-3.094-7.373-4.684-11.739-4.352-.297.022-.607.053-.912.08v-84.306h56.958c4.143 0 7.5-3.357 7.5-7.5s-3.357-7.5-7.5-7.5h-123.059c-.178-.001-.232-.001-.314-.217zm122.052 149.507c-1.136 0-2.061-.925-2.061-2.061v-12.724c0-1.136.925-2.061 2.061-2.061h212.317c1.136 0 2.061.925 2.061 2.061v12.724c0 1.136-.925 2.061-2.061 2.061h-88.761-34.796zm-104.307 84.701c-5.275-4.36-8.28-10.709-8.28-17.598 0-12.601 10.251-22.852 22.851-22.852 12.601 0 22.852 10.251 22.852 22.852 0 6.838-3.019 13.235-8.282 17.598zm15.392-97.807c15.04 0 27.276 12.236 27.276 27.276 0 1.473-.129 2.937-.361 4.38-4.139 1.862-8.144 4.404-11.607 7.868-1.459 1.458-2.793 3.083-4.02 4.831-2.813-.953-5.771-1.583-8.834-1.847-2.094-5.02-4.902-9.318-8.378-12.794-5.803-5.802-13.121-9.021-20.05-10.778 3.558-11.065 13.998-18.936 25.974-18.936zm16.177-14.806c5.142-5.143 13.247-6.752 19.148-7.189-.423 5.616-1.912 13.233-6.498 18.388-4.163-3.888-9.104-6.948-14.569-8.912.596-.833 1.233-1.601 1.919-2.287zm18.947 83.179c-2.111-6.395-5.88-12.041-10.801-16.424.508-.643 1.032-1.26 1.59-1.817 5.883-5.883 15.077-7.718 21.754-8.222.246-.022.47.062.647.24.178.178.258.395.239.648-.503 6.676-2.337 15.869-8.222 21.753-1.453 1.455-3.2 2.727-5.207 3.822zm-52.781-189.558h35.937v87.682c-.763.297-1.523.615-2.278.96-6.161-10.753-17.616-17.577-30.464-17.577-1.077 0-2.141.057-3.194.152v-71.217zm3.194 86.066c7.972 0 15 4.585 18.266 11.643-2.107 2.478-3.902 5.324-5.363 8.512-11.067.409-21.189 5.148-28.574 12.649-2.859-3.546-4.481-8-4.481-12.652 0-11.112 9.04-20.152 20.152-20.152zm-16.487 89.861c-5.883-5.884-7.718-15.078-8.222-21.755-.019-.252.062-.47.24-.647.178-.178.392-.255.647-.24 6.677.504 15.87 2.339 21.753 8.222 1.196 1.196 2.272 2.588 3.227 4.161-6.458 2.264-12.121 6.228-16.449 11.358-.417-.356-.819-.721-1.196-1.099zm133.37 43.065v-25.651c0-.937.763-1.698 1.699-1.698h23.953c.937 0 1.698.762 1.698 1.698v25.651zm82.756 0v-69.7h19.796v69.7zm71.942 0v-25.651c0-.937.762-1.698 1.698-1.698h23.953c.937 0 1.698.762 1.698 1.698v25.651z" fill="#c49b36"/><path d="m199.918 118.198h112.165c4.143 0 7.5-3.357 7.5-7.5s-3.357-7.5-7.5-7.5h-112.165c-4.143 0-7.5 3.357-7.5 7.5s3.357 7.5 7.5 7.5z" fill="#c49b36"/><path d="m139.09 161.725h233.821c4.143 0 7.5-3.357 7.5-7.5s-3.357-7.5-7.5-7.5h-233.821c-4.143 0-7.5 3.357-7.5 7.5s3.357 7.5 7.5 7.5z" fill="#c49b36"/></g></svg>