<svg xmlns="http://www.w3.org/2000/svg" id="Capa_1" enable-background="new 0 0 512 512" height="512" viewBox="0 0 512 512" width="512"><g><path d="m158.534 425.972h-104.179c-4.142 0-7.5 3.358-7.5 7.5s3.358 7.5 7.5 7.5h104.179c4.142 0 7.5-3.358 7.5-7.5s-3.358-7.5-7.5-7.5z" fill="#ffffff"/><path d="m393.259 425.972h-104.178c-4.142 0-7.5 3.358-7.5 7.5s3.358 7.5 7.5 7.5h104.178c4.142 0 7.5-3.358 7.5-7.5s-3.358-7.5-7.5-7.5z" fill="#ffffff"/><path d="m446.38 425.972c-4.142 0-7.5 3.358-7.5 7.5 0 4.142 3.358 7.5 7.5 7.5s7.5-3.358 7.5-7.5c0-4.142-3.358-7.5-7.5-7.5z" fill="#ffffff"/><path d="m223.807 425.972c-4.142 0-7.5 3.358-7.5 7.5 0 4.142 3.358 7.5 7.5 7.5s7.5-3.358 7.5-7.5c0-4.142-3.357-7.5-7.5-7.5z" fill="#ffffff"/><path d="m163.33 323.676h-2.74c-17.92 0-32.5 14.58-32.5 32.5v21.062h-34.93v-38.728c1.284.107 2.568.164 3.848.164 12.185 0 24.016-4.804 32.767-13.556 10.693-10.692 15.492-25.98 12.838-40.896-.904-5.077-4.922-9.096-10-10-14.914-2.651-30.204 2.146-40.896 12.839-2.304 2.304-4.316 4.832-6.058 7.513-1.741-2.681-3.754-5.209-6.058-7.513-10.692-10.692-25.979-15.492-40.896-12.838-5.077.904-9.095 4.922-9.999 10-2.654 14.914 2.145 30.203 12.838 40.896 8.752 8.752 20.583 13.556 32.767 13.556 1.28 0 2.564-.057 3.848-.164v38.728h-45.659c-17.92 0-32.5 14.58-32.5 32.5v60.124c0 9.649 7.851 17.5 17.5 17.5h477c9.649 0 17.5-7.851 17.5-17.5v-113.687c0-17.92-14.58-32.5-32.5-32.5h-7.688c9.728-10.6 14.02-25.192 11.482-39.454-.904-5.077-4.922-9.096-10-10-14.914-2.651-30.203 2.146-40.895 12.839-2.304 2.304-4.317 4.832-6.058 7.513-1.741-2.681-3.754-5.209-6.058-7.513-10.692-10.693-25.983-15.493-40.896-12.838-5.077.904-9.095 4.922-10 10-2.537 14.262 1.754 28.854 11.482 39.454h-32.199v-46.9c1.284.107 2.568.164 3.847.164 12.184 0 24.016-4.804 32.768-13.556 10.693-10.692 15.492-25.98 12.838-40.896-.904-5.079-4.923-9.097-10-9.999-14.913-2.655-30.203 2.145-40.895 12.838-2.304 2.304-4.317 4.832-6.058 7.513-1.741-2.681-3.754-5.209-6.058-7.513-10.693-10.693-25.982-15.493-40.894-12.838-5.079.903-9.099 4.922-10.001 10-2.654 14.915 2.145 30.203 12.838 40.895 8.752 8.752 20.583 13.556 32.768 13.556 1.28 0 2.563-.057 3.848-.164v46.9h-32.199c9.728-10.601 14.02-25.193 11.482-39.454-.904-5.077-4.922-9.096-10-10-14.912-2.651-30.203 2.146-40.895 12.839-2.304 2.304-4.317 4.832-6.058 7.513-1.741-2.681-3.754-5.209-6.058-7.513-10.692-10.692-25.98-15.492-40.896-12.838-5.077.904-9.095 4.922-9.999 10-2.538 14.261 1.753 28.853 11.482 39.454h-32.2v-46.9c1.284.107 2.568.164 3.848.164 12.185 0 24.016-4.804 32.768-13.556 10.693-10.693 15.492-25.981 12.838-40.894-.903-5.079-4.922-9.098-10-10.001-14.914-2.655-30.203 2.145-40.895 12.838-2.304 2.304-4.317 4.832-6.058 7.513-1.741-2.681-3.754-5.209-6.058-7.513-10.693-10.693-25.983-15.493-40.894-12.838-5.078.903-9.098 4.921-10.002 10.001-2.653 14.915 2.146 30.203 12.839 40.895 8.752 8.752 20.583 13.556 32.768 13.556 1.279 0 2.563-.057 3.847-.164v46.897zm194.504-87.743c6.784-6.783 16.309-10.058 25.796-8.951 1.106 9.487-2.168 19.012-8.952 25.795-6.784 6.784-16.305 10.057-25.795 8.951-1.106-9.486 2.168-19.011 8.951-25.795zm-24.377 25.795c-9.484 1.108-19.011-2.167-25.795-8.951s-10.058-16.308-8.951-25.795c9.489-1.108 19.012 2.168 25.796 8.951 6.783 6.784 10.056 16.307 8.95 25.795zm-145.963-25.795c6.784-6.783 16.306-10.058 25.796-8.951 1.106 9.487-2.168 19.012-8.951 25.795-6.784 6.784-16.304 10.057-25.795 8.951-1.108-9.486 2.166-19.011 8.95-25.795zm-24.377 25.795c-9.486 1.108-19.011-2.167-25.795-8.951s-10.058-16.308-8.952-25.795c9.483-1.108 19.011 2.167 25.796 8.951 6.784 6.785 10.058 16.308 8.951 25.795zm-60.793 35.939c6.784-6.784 16.308-10.058 25.796-8.952 1.107 9.488-2.168 19.012-8.952 25.796-6.783 6.784-16.307 10.06-25.795 8.951-1.106-9.487 2.167-19.011 8.951-25.795zm-24.378 25.795c-9.487 1.106-19.011-2.168-25.795-8.951-6.784-6.784-10.058-16.309-8.951-25.796 9.49-1.108 19.012 2.168 25.795 8.952 6.784 6.784 10.058 16.308 8.951 25.795zm365.059-25.795c6.784-6.784 16.309-10.058 25.795-8.952 1.107 9.488-2.167 19.012-8.951 25.796s-16.303 10.061-25.796 8.951c-1.106-9.487 2.168-19.011 8.952-25.795zm-59.125-8.952c9.491-1.108 19.012 2.168 25.796 8.952s10.058 16.309 8.951 25.795c-9.487 1.106-19.012-2.167-25.795-8.951-6.784-6.784-10.058-16.308-8.952-25.796zm-111.215 8.952c6.784-6.784 16.307-10.058 25.795-8.952 1.107 9.487-2.167 19.011-8.951 25.796-6.784 6.784-16.307 10.06-25.796 8.951-1.106-9.487 2.168-19.011 8.952-25.795zm-59.125-8.952c9.489-1.108 19.012 2.168 25.795 8.952 6.784 6.784 10.058 16.308 8.952 25.795-9.49 1.106-19.012-2.168-25.796-8.951-6.784-6.784-10.058-16.309-8.951-25.796zm-70.45 67.461c0-9.649 7.851-17.5 17.5-17.5h87.91v38.562h-105.41zm353.91 113.686c0 1.378-1.122 2.5-2.5 2.5h-477c-1.378 0-2.5-1.122-2.5-2.5v-60.124c0-9.649 7.851-17.5 17.5-17.5h292.327c4.142 0 7.5-3.358 7.5-7.5s-3.358-7.5-7.5-7.5h-61.327v-38.562h155.34v38.562h-61.327c-4.142 0-7.5 3.358-7.5 7.5s3.358 7.5 7.5 7.5h121.987c9.649 0 17.5 7.851 17.5 17.5zm0-87.489c-5.056-3.245-11.059-5.136-17.5-5.136h-45.66v-38.562h45.66c9.649 0 17.5 7.851 17.5 17.5z" fill="#ffffff"/><path d="m383.035 66.404c3.84 1.551 8.211-.304 9.764-4.144 5.553-13.743 18.719-22.622 33.542-22.622 19.939 0 36.16 16.221 36.16 36.16 0 19.938-16.221 36.16-36.16 36.16-14.566 0-27.646-8.67-33.321-22.087-1.614-3.814-6.014-5.601-9.83-3.986-3.815 1.614-5.599 6.015-3.986 9.83 8.028 18.979 26.53 31.244 47.136 31.244 28.21 0 51.16-22.95 51.16-51.16 0-28.209-22.95-51.16-51.16-51.16-20.969 0-39.594 12.561-47.449 32.002-1.552 3.84.303 8.211 4.144 9.763z" fill="#ffffff"/><path d="m101.211 169.421h28.189c4.142 0 7.5-3.358 7.5-7.5s-3.358-7.5-7.5-7.5h-28.189c-1.176 0-2.184-.812-2.451-1.977-1.758-7.649.162-15.639 5.27-21.922 5.115-6.292 12.547-9.803 20.407-9.65 2.47.052 4.794-1.113 6.235-3.111 9.296-12.89 24.309-20.586 40.158-20.586s30.861 7.696 40.158 20.586c1.441 1.998 3.779 3.151 6.235 3.111 7.867-.157 15.292 3.358 20.406 9.65 5.108 6.284 7.029 14.274 5.271 21.923-.267 1.164-1.275 1.976-2.451 1.976h-78.362c-4.142 0-7.5 3.358-7.5 7.5s3.358 7.5 7.5 7.5h78.362c8.208 0 15.228-5.6 17.07-13.616 2.801-12.185-.207-24.849-8.251-34.745-7.201-8.858-17.393-14.221-28.415-15.073-12.201-14.975-30.63-23.812-50.023-23.812-19.394 0-37.822 8.837-50.023 23.812-11.022.853-21.215 6.216-28.416 15.074-8.043 9.895-11.05 22.558-8.249 34.743 1.841 8.017 8.861 13.617 17.069 13.617z" fill="#ffffff"/></g></svg>