<svg xmlns="http://www.w3.org/2000/svg" height="512" viewBox="0 0 55 61" width="512"><g id="Page-1" fill="none" fill-rule="evenodd"><g id="039---Roller-Skater" fill="#ffffff" fill-rule="nonzero" transform="translate(0 -1)"><path id="Shape" d="m39.351 29.634c.7594785.8679861 1.8566538 1.3659069 3.01 1.366h9.139c1.9329966 0 3.5-1.5670034 3.5-3.5s-1.5670034-3.5-3.5-3.5h-8.031l-3.081-3.7.251-.589c.5427898-1.2602283.6483936-2.6658158.3-3.993 2.7316837-.7909995 4.7150686-3.1536016 5.021-5.981.2165563-.1150485.4101086-.26894123.571-.454.373355-.43680133.5354029-1.01585707.443-1.583-.677438-3.87399179-4.041223-6.70060085-7.974-6.70060085s-7.296562 2.82660906-7.974 6.70060085c-.0917897.5664908.070221 1.14468248.443 1.581.1608914.18505877.3544437.3389515.571.454.0694316.6528301.2310387 1.2925248.48 1.9-.249575.1079413-.4917664.2322105-.725.372h-9.17c-.009 0-.016 0-.025 0s-.016 0-.024 0h-2.336c-1.1534109-.0014933-2.2513259.4949742-3.012 1.362l-5.357 6.131c-.6137378.6960665-.924982 1.6079052-.8649339 2.5339597s.4864435 1.7900625 1.1849339 2.4010403c1.4485357 1.2669234 3.6475224 1.1294588 4.927-.308l4.673-5.115h1.4.01.032l4.293-.012-6.726 15.6-3.62 8.4h-10.18c-.48952491.0017154-.96111544.1844389-1.324.513-1.173606-.8118911-2.75595043-.6884225-3.78941669.2956841-1.03346626.9841065-1.23416467 2.5585202-.48063487 3.7704241s2.25429573 1.728392 3.59405156 1.2368918v2.368c-.32025698-.1184378-.65856033-.1806856-1-.184-1.65685425 0-3 1.3431458-3 3s1.34314575 3 3 3c.53447956-.0028588 1.05826178-.150043 1.516-.426.71380644 1.0963474 2.03288592 1.6348207 3.31001678 1.3512117 1.27713082-.2836089 2.24431142-1.3297858 2.42698322-2.6252117l.614-4.3h2.133c.7113268-.002145 1.3675874-.3832487 1.722-1h3.678c1.9770932-.0047573 3.7675005-1.1688743 4.574-2.974l2.676-6.026h3.35c.5522847 0 1 .4477153 1 1v13c.0017154.4895249.1844389.9611154.513 1.324-.8136929 1.1733411-.6913863 2.7568389.2928345 3.7913123.9842207 1.0344733 2.5596717 1.2354176 3.7720459.4811138 1.2123742-.7543039 1.7282402-2.2564046 1.2351196-3.5964261h2.368c-.1174147.3204379-.1786467.6587359-.181 1 0 1.6568542 1.3431458 3 3 3s3-1.3431458 3-3c-.0028588-.5344796-.150043-1.0582618-.426-1.516 1.0966543-.7134279 1.6353972-2.032539 1.3517301-3.3097089s-1.3301729-2.2441877-2.6257301-2.4262911l-4.3-.615v-2.133c-.002145-.7113268-.3832487-1.3675874-1-1.722v-7.278c.0160432-2.2153204-1.450193-4.1682554-3.582-4.771l2.946-6.866zm12.149-3.634c.8284271 0 1.5.6715729 1.5 1.5s-.6715729 1.5-1.5 1.5h-9.139c-.5749279-.0014854-1.1214107-.2503172-1.5-.683l-.988-1.13 1.853-2.16.212.254c.3788882.4542899.9394483.7175444 1.531.719zm-12.5-12c-2.3751008-.0029983-4.4215673-1.6735832-4.9-4h9.8c-.4784327 2.3264168-2.5248992 3.9970017-4.9 4zm0-11c2.953001-.03438143 5.4908745 2.0875864 5.98 5h-11.96-.011c.5033199-2.90877532 3.0391066-5.02510538 5.991-5zm-17.21 14.01c-.5580175.0015441-1.0902268.2352234-1.469.645l-4.693 5.136c-.5588817.5998762-1.4885581.6599543-2.12.137-.2991426-.2610141-.4816628-.6306825-.5070119-1.0268796-.0253491-.396197.1085722-.7861117.3720119-1.0831204l5.359-6.129c.3811646-.4332962.9309136-.6808291 1.508-.679h1.472l.361 3zm2.3 0-.36-3h6.039c-.1824865.2843584-.3410319.5833869-.474.894l-.9 2.1zm-20.09 29.99c-.55228475 0-1-.4477153-1-1s.44771525-1 1-1 1 .4477153 1 1-.44771525 1-1 1zm0 8c-.55228475 0-1-.4477153-1-1s.44771525-1 1-1 1 .4477153 1 1-.44771525 1-1 1zm7.867-6c-.9938445.0037935-1.8355549.733701-1.98 1.717l-.615 4.3c-.08632778.5911874-.6137413 1.0159133-1.20974072.9742039-.59599942-.0417095-1.05911511-.5357551-1.06225928-1.1332039v-9.858h7v4zm23.133 9c0 .5522847-.4477153 1-1 1s-1-.4477153-1-1 .4477153-1 1-1 1 .4477153 1 1zm7 1c-.5522847 0-1-.4477153-1-1s.4477153-1 1-1 1 .4477153 1 1-.4477153 1-1 1zm-3.283-6.888 4.3.615c.5945364.0831152 1.023222.6123541.981069 1.2111903s-.5407519 1.0628021-1.141069 1.0618097l-9.857.0000016v-7.0000016h4v2.133c.0038619.9936243.7338565 1.8350101 1.717 1.979zm-2.717-13.112v7h-3v-4c0-1.6568542-1.3431458-3-3-3h-5c-.5522847 0-1 .4477153-1 1 .0035695.361358.2041412.691937.523.862l-2.377 5.349c-.4832095 1.0850218-1.5582497 1.785403-2.746 1.789h-3.4v-3h1.18c.7962753-.0006202 1.5171131-.4712433 1.838-1.2l3.359-7.8h10.623c.796138-.0015971 1.560128.3139606 2.1230837.8769163s.8785134 1.3269457.8769163 2.1230837zm-3.659-5h-9.1l6.719-15.595.015-.035 1.158-2.685c.4467963-1.0723681 1.3211657-1.9093992 2.412-2.309 1.3063309 1.6341115 3.2760893 2.596974 5.368 2.624.271692.825913.2737931 1.7168146.006 2.544l-.15-.18c-.3534622-.424707-.984293-.4824622-1.409-.129s-.4824622.984293-.129 1.409l3.192 3.829-1.885 2.2-3.785-4.326c-.3639557-.4158704-.9961296-.4579557-1.412-.094s-.4579557.9961296-.094 1.412l2.653 3.029z" fill="#ffffff"/></g></g></svg>