<svg id="SvgjsSvg1020" width="288" height="288" xmlns="http://www.w3.org/2000/svg" version="1.1" xmlns:xlink="http://www.w3.org/1999/xlink" xmlns:svgjs="http://svgjs.com/svgjs"><defs id="SvgjsDefs1021"></defs><g id="SvgjsG1022"><svg xmlns="http://www.w3.org/2000/svg" viewBox="0 0 512 512" width="288" height="288"><path d="M138 432.59h-129.94a8.06 8.06 0 110-16.12h129.94a8.06 8.06 0 110 16.12zM317.77 432.59h-61.46a8.06 8.06 0 110-16.12h61.45a8.06 8.06 0 110 16.12zM503.94 432.59h-85.94a8.06 8.06 0 110-16.12h85.92a8.06 8.06 0 110 16.12zM116.12 344.15a8.06 8.06 0 01-8.06-8.06v-144.18a8.06 8.06 0 0116.12 0v144.18a8.06 8.06 0 01-8.06 8.06z" fill="#ffffff" class="svgShape color000000-0 selectable"></path><path d="M113.68 238.59c-17.93 0-30-9.86-33.27-27.35a8.06 8.06 0 0115.84-3c1.94 10.37 7.86 14.74 19.21 14.16a8.06 8.06 0 01.82 16.1c-.88.07-1.75.09-2.6.09zM116.11 268.32a8.06 8.06 0 01-.22-16.11c10-.28 16.83-4.55 20.79-13.05a8.06 8.06 0 1114.61 6.8c-6.5 14-18.91 21.91-34.94 22.36zM250 235.45a8.05 8.05 0 01-6.78-3.69l-14.77-22.87a8.06 8.06 0 1113.55-8.74l14.79 22.85a8.06 8.06 0 01-6.79 12.45zM461.8 432.59a8.06 8.06 0 01-6.8-12.29c2.8-4.56 9-18.47 4.35-27.9-4.47-9-18.1-12.09-28.75-13.12a8.06 8.06 0 01-7.27-7.67c0-.18-1.12-20.15-13.29-27.76-7.36-4.6-18-4-31.68 1.88a8.05 8.05 0 01-10.36-3.73c-4-7.64-17.85-27.24-33.79-26a8.06 8.06 0 01-1.21-16.08c22.49-1.71 38.64 18 45.58 28.44 15.94-5.47 29.4-4.85 40.08 1.87 13.59 8.55 18.31 24.64 19.93 33.82 17.82 2.85 29.66 10 35.22 21.24 9.6 19.43-4.52 42.52-5.12 43.49a8.05 8.05 0 01-6.89 3.81zM145.48 432.59h-96.07a8.06 8.06 0 01-7.28-4.6c-9-19-9.67-35-1.86-47.36 10.3-16.36 32.43-20.82 43.88-22 2.27-12.86 8-21.83 17-26.72 15.21-8.25 34.22-1.47 42.5 2.27a48.84 48.84 0 0114.14-4.22 8.06 8.06 0 112.1 16 35.14 35.14 0 00-12.28 4.29 8.06 8.06 0 01-7.76 0c-5.39-2.92-21.49-9.37-31-4.16-5.44 3-8.62 9.95-9.45 20.76a8.06 8.06 0 01-8 7.44c-7.82.05-29.83 2.84-37.45 15-4.12 6.56-3.85 15.71.78 27.22h90.82a8.06 8.06 0 110 16.12zM202 486h-28.58a8.06 8.06 0 01-7.93-9.48c4.91-27.35 6.92-54.45 8.7-78.36 1.23-16.49 2.38-32.08 4.33-46.17a8.06 8.06 0 01.29-1.29c13.15-42.27 21.79-78.39 24.89-92a8.06 8.06 0 0115.71 3.59c-3.13 13.68-11.81 50-25 92.52-1.82 13.43-2.94 28.53-4.13 44.51-1.6 21.57-3.4 45.69-7.31 70.53h12.26c3.08-17.24 11.71-65 20.25-107.67a8 8 0 01.24-.92c.25-.79 2.94-9.55 4.71-15.33a8.06 8.06 0 0115.41 4.72c-3.06 10-4.18 13.63-4.63 15.07-10.54 52.71-21.19 113-21.29 113.59a8.06 8.06 0 01-7.92 6.69z" fill="#ffffff" class="svgShape color000000-1 selectable"></path><path d="M360.1 473a8 8 0 01-5.47-2.14c-8.26-7.65-81-75.22-89.73-92.68-7.72-15.44-22.94-53.55-28.78-70.25a8.06 8.06 0 0115.21-5.32c5.58 15.94 20.65 53.69 28 68.37 5.28 10.56 50.48 54.69 81.07 83.24l9.89-8.24-71.17-89a8.05 8.05 0 01-1.64-3.61l-17.8-99a8.06 8.06 0 1115.86-2.85l17.44 97 74.81 93.48a8.06 8.06 0 01-1.13 11.22l-21.4 17.84a8 8 0 01-5.16 1.94zM220.42 87.89a8.06 8.06 0 01-7.14-4.34 15.81 15.81 0 01-4.86-.53 18.11 18.11 0 01-12.31-9.64c-3.9-7.94-3.79-28.19.23-41.66a8.06 8.06 0 1115.44 4.61c-3.51 11.77-2.54 27-1.2 30a1.86 1.86 0 001.25 1l.45.1c1-.24 2.47-.6 5-1a8.07 8.07 0 018.29 3.86 20.27 20.27 0 012.86 8.86 8.06 8.06 0 01-7.26 8.79q-.36-.05-.75-.05z" fill="#ffffff" class="svgShape color000000-2 selectable"></path><path d="m250.45 71.49q-.36 0-.72 0c-12.83-1.14-19.34-9.1-21.17-13.63a8.06 8.06 0 0 1 1.07-7.91 2.94 2.94 0 0 0 -.13-.41 8.06 8.06 0 0 1 15.08-5.68 17 17 0 0 1 .82 9.76 10.73 10.73 0 0 0 3.6 1.45c2.61-1.87 7.47-7.11 6.68-19.9-.37-6-1.88-10.23-4.36-12.27a6.79 6.79 0 0 0 -4.14-1.5 7.43 7.43 0 0 1 -6.77-2.28c-1-.88-7.4-5.93-19-.53a39.76 39.76 0 0 0 -9.26 5.85l.45.08a8.06 8.06 0 0 1 -1.61 16l-1 .36a15 15 0 0 1 -6.25 1.28 11.66 11.66 0 0 1 -10-7.19 17.07 17.07 0 0 1 2.1-16.73 51.51 51.51 0 0 1 18.74-14.24c17-7.89 29.05-2.22 34.32 1.42a22.69 22.69 0 0 1 12.63 5.07c6.11 5 9.55 13 10.21 23.73 1.81 29.06-17.74 36.49-18.54 36.78a8.07 8.07 0 0 1 -2.75.49z" fill="#ffffff" class="svgShape color000000-3 selectable"></path><path d="M270 103.21a8 8 0 01-6.45-3.22 68 68 0 00-5.4-6.35 52.14 52.14 0 01-13.85-27.18 8.06 8.06 0 0115.87-2.81 36.07 36.07 0 009.59 18.81 84 84 0 016.69 7.86 8.06 8.06 0 01-6.44 12.9zM227.8 270.27a75.21 75.21 0 01-19.29-2.13 8.06 8.06 0 01-5.89-6.83c-.49-4.15-11.83-102.26 7.61-155a8.06 8.06 0 1115.12 5.57c-15.54 42.19-9.44 120-7.33 141.77 17.88 2.37 46.52-3.21 62.2-7.09-.11-1.57-.22-3.28-.34-5-.19-2.92-.39-5.85-.52-8-.07-1.12-.13-2.05-.16-2.71-.3-5.46 2.44-7.82 4.8-8.84a8.06 8.06 0 0111.27 7.49c.09 2.09.95 14.84 1.49 22.66a8.06 8.06 0 01-5.85 8.31c-1.78.41-35.51 9.8-63.11 9.8zm67.46-40.57a8.06 8.06 0 01-4.83 7 8 8 0 004.83-7.03zM149.55 297.12a8.06 8.06 0 01-5.55-13.87c16.55-15.86 24.94-32.67 24.94-50 0-15-6.26-33.12-16.33-47.27-10.57-14.84-23.86-23.35-36.47-23.35s-25.93 8.52-36.49 23.37c-10.07 14.15-16.33 32.26-16.33 47.27 0 17.86 8.06 34.68 24 50a8.06 8.06 0 01-11.22 11.6c-18.91-18.21-28.9-39.51-28.9-61.6 0-18.46 7.22-39.63 19.32-56.62 13.83-19.42 31.44-30.12 49.6-30.12s35.77 10.7 49.6 30.12c12.1 17 19.32 38.16 19.32 56.62 0 21.57-10.34 42.87-29.91 61.62a8 8 0 01-5.58 2.23zM150.08 512a12.06 12.06 0 01-7.26-21.69l24.39-18.39a8.06 8.06 0 014.79-1.62l29.8-.3h.09a8.06 8.06 0 018 8.57l-1.57 25.43a8.06 8.06 0 01-8 7.55l-50.16.45zm24.72-25.62l-12.46 9.4 30.37-.27.59-9.33zM358.24 511.19a11.75 11.75 0 01-5.71-1.5 11.6 11.6 0 01-5.89-12.13l5.51-34a8.06 8.06 0 012.8-4.9l21.4-17.84a8.06 8.06 0 0111 .67l19 20.21a8.06 8.06 0 01-.56 11.59l-39.91 34.92a11.64 11.64 0 01-7.64 2.98zm9.34-42l-3.08 18.91 24.43-21.38-8.1-8.6z" fill="#ffffff" class="svgShape color000000-4 selectable"></path><path d="m245.83 228.16a8 8 0 0 1 -6.75-3.65l-11-16.86a8.06 8.06 0 0 1 1.28-10.33l33.3-30.72-11.06-22.32a8.06 8.06 0 0 1 14.4-7.15l13.74 27.73a8.06 8.06 0 0 1 -1.76 9.5l-32.72 30.18 2.93 4.48 43.57-27.78a15.4 15.4 0 0 0 5.24-19.82l-28.35-56.16a8.29 8.29 0 0 0 -10.61-3.89 8.06 8.06 0 0 1 -6.28-14.84 24.45 24.45 0 0 1 31.31 11.47l28.35 56.16a31.53 31.53 0 0 1 -10.9 40.63l-50.36 32.11a8 8 0 0 1 -4.33 1.26z" fill="#ffffff" class="svgShape color000000-5 selectable"></path></svg></g></svg>